<?xml version="1.0" encoding="utf-8"?>
<!-- Generator: Adobe Illustrator 24.0.1, SVG Export Plug-In . SVG Version: 6.00 Build 0)  -->
<svg version="1.1" id="Layer_1" xmlns="http://www.w3.org/2000/svg" xmlns:xlink="http://www.w3.org/1999/xlink" x="0px" y="0px"
	 viewBox="0 0 2048 2048" style="enable-background:new 0 0 2048 2048;" xml:space="preserve">
<style type="text/css">
	.st0{fill:url(#SVGID_1_);}
	.st1{fill:url(#SVGID_2_);}
	.st2{fill:url(#SVGID_3_);}
	.st3{fill:#6386BB;}
</style>
<g>
	<g>
		<linearGradient id="SVGID_1_" gradientUnits="userSpaceOnUse" x1="1195.8137" y1="913.3459" x2="1214.0068" y2="1122.2731">
			<stop  offset="0" style="stop-color:#8EE7FF"/>
			<stop  offset="0.1974" style="stop-color:#56ADFF"/>
			<stop  offset="0.4821" style="stop-color:#3085DE"/>
			<stop  offset="0.759" style="stop-color:#56ADFF"/>
			<stop  offset="1" style="stop-color:#3085DE"/>
		</linearGradient>
		<path class="st0" d="M1202.9,1102.43c-9.86,0-18.82-1.53-26.87-4.58c-8.05-3.05-14.93-7.36-20.62-12.91
			c-5.69-5.55-10.1-12.29-13.23-20.2c-3.12-7.92-4.69-16.73-4.69-26.45v-90.81h29.16v90.67c0,7.63,1.25,13.93,3.75,18.93
			c2.5,4.99,5.59,8.95,9.27,11.85c3.68,2.91,7.63,4.93,11.87,6.03c4.23,1.11,8.02,1.66,11.35,1.66c3.33,0,7.12-0.55,11.35-1.66
			c4.23-1.11,8.19-3.12,11.87-6.03c3.68-2.91,6.77-6.86,9.27-11.85c2.5-4.99,3.75-11.3,3.75-18.93v-90.67h29.16v90.81
			c0,9.72-1.53,18.54-4.58,26.45c-3.06,7.92-7.43,14.65-13.12,20.2c-5.7,5.56-12.57,9.87-20.62,12.91
			C1221.93,1100.9,1212.9,1102.43,1202.9,1102.43z"/>
		<linearGradient id="SVGID_2_" gradientUnits="userSpaceOnUse" x1="862.4412" y1="942.3755" x2="880.6342" y2="1151.3026">
			<stop  offset="0" style="stop-color:#8EE7FF"/>
			<stop  offset="0.1974" style="stop-color:#56ADFF"/>
			<stop  offset="0.4821" style="stop-color:#3085DE"/>
			<stop  offset="0.759" style="stop-color:#56ADFF"/>
			<stop  offset="1" style="stop-color:#3085DE"/>
		</linearGradient>
		<path class="st1" d="M929.78,1061.15c-6.65-1.4-26.45-6.36-45.68,6.65c-0.02-0.01-0.04-0.01-0.06-0.02
			c-1.88,1.2-3.82,2.33-5.87,3.3c-6.03,2.84-12.51,4.27-19.43,4.27c-6.93,0-13.41-1.42-19.44-4.27c-6.03-2.85-11.29-6.67-15.8-11.46
			c-4.5-4.79-8.07-10.31-10.71-16.56c-2.63-6.25-3.95-12.84-3.95-19.78c0-6.81,1.32-13.37,3.95-19.68
			c2.63-6.32,6.2-11.84,10.71-16.56c4.5-4.72,9.77-8.5,15.8-11.35c6.03-2.84,12.51-4.27,19.44-4.27c6.92,0,13.41,1.42,19.43,4.27
			c6.03,2.85,11.29,6.63,15.8,11.35c4.5,4.72,8.07,10.24,10.7,16.56c2.63,6.32,3.95,12.88,3.95,19.68c0,6.94-1.32,13.53-3.95,19.78
			c-0.36,0.86-0.78,1.67-1.18,2.5c8.85-0.81,19.33-0.69,30.65,1.57c2.42-7.55,3.64-15.5,3.64-23.85c0-10.83-2.08-21.07-6.25-30.73
			c-4.17-9.65-9.83-18.05-16.98-25.2c-7.15-7.15-15.52-12.81-25.1-16.98c-9.58-4.16-19.86-6.25-30.83-6.25
			c-10.83,0-21.04,2.09-30.62,6.25c-9.58,4.17-17.95,9.83-25.1,16.98c-7.15,7.15-12.81,15.55-16.97,25.2
			c-4.17,9.65-6.25,19.89-6.25,30.73c0,10.97,2.08,21.24,6.25,30.83c4.17,9.58,9.82,17.95,16.97,25.1
			c7.15,7.15,15.52,12.81,25.1,16.98c9.58,4.17,19.79,6.25,30.62,6.25c10.97,0,21.25-2.08,30.83-6.25c2.79-1.21,5.44-2.59,8.02-4.06
			c0.29-0.12,0.64-0.25,0.9-0.37c6.03-2.84,9.99-4.5,16.92-4.27c13.48,0.45,16.52,7.04,17.26,12.39h33.63
			C966.2,1090.67,958.36,1067.17,929.78,1061.15z"/>
		<linearGradient id="SVGID_3_" gradientUnits="userSpaceOnUse" x1="1036.6885" y1="927.2023" x2="1054.8816" y2="1136.1294">
			<stop  offset="0" style="stop-color:#8EE7FF"/>
			<stop  offset="0.1974" style="stop-color:#56ADFF"/>
			<stop  offset="0.4821" style="stop-color:#3085DE"/>
			<stop  offset="0.759" style="stop-color:#56ADFF"/>
			<stop  offset="1" style="stop-color:#3085DE"/>
		</linearGradient>
		<path class="st2" d="M1094.66,1040.85c4.96-4.79,8.71-10.38,11.26-16.77c2.55-6.39,3.83-13.33,3.83-20.83
			c0-7.5-1.45-14.54-4.36-21.14c-2.9-6.59-6.84-12.32-11.79-17.18c-4.96-4.86-10.8-8.71-17.53-11.56
			c-6.73-2.84-13.92-4.27-21.56-4.27h-69.27v152.47h29.75v-45.41h0.01v-26.25h-0.01v-54.99h36.34c4.67,0,8.78,0.84,12.32,2.5
			c3.54,1.67,6.51,3.82,8.92,6.45c2.41,2.64,4.25,5.66,5.52,9.06c1.28,3.41,1.91,6.84,1.91,10.31s-0.5,6.81-1.49,10
			c-0.99,3.2-2.52,6.04-4.57,8.54c-2.06,2.5-4.71,4.48-7.97,5.93c-3.26,1.46-7.09,2.19-11.47,2.19h-23.95v26.25h0.08
			c3.24,56.36,79.12,46.27,79.12,46.27v-28.95c0,0-38.96,3.18-45.2-18.52c4.01-0.67,7.8-1.61,11.31-2.86
			C1083.43,1049.39,1089.69,1045.64,1094.66,1040.85z"/>
	</g>
	<g>
		<path class="st3" d="M1321.81,1321.81H726.19V726.19h595.63V1321.81z M733.11,1314.89h581.77V733.11H733.11V1314.89z"/>
	</g>
	<path class="st3" d="M726.19,726.19v119.65h119.65V726.19H726.19z M733.57,838.45V733.57h104.88v104.88H733.57z"/>
	<path class="st3" d="M726.19,1201.91v119.65h119.65v-119.65H726.19z M733.57,1314.18V1209.3h104.88v104.88H733.57z"/>
	<path class="st3" d="M1202.16,1202.16v119.65h119.65v-119.65H1202.16z M1209.55,1314.43v-104.88h104.88v104.88H1209.55z"/>
	<path class="st3" d="M1202.16,726.19v119.65h119.65V726.19H1202.16z M1209.55,838.45V733.57h104.88v104.88H1209.55z"/>
	<rect x="1229.47" y="753.49" class="st3" width="65.04" height="65.04"/>
	<rect x="753.49" y="1229.22" class="st3" width="65.04" height="65.04"/>
	<g>
		<polygon class="st3" points="818.53,792.63 818.53,753.49 753.49,753.49 753.49,818.53 790.33,818.53 790.33,792.63 		"/>
		<rect x="797.45" y="798.74" class="st3" width="21.08" height="19.79"/>
	</g>
	<g>
		<polygon class="st3" points="1229.47,1255.37 1229.47,1294.51 1294.51,1294.51 1294.51,1229.47 1257.67,1229.47 1257.67,1255.37 
					"/>
		<rect x="1229.47" y="1229.47" class="st3" width="21.08" height="19.79"/>
	</g>
</g>
</svg>
